<svg width="24" height="24" viewBox="0 0 24 24" fill="none" xmlns="http://www.w3.org/2000/svg">
<path d="M5 7.76615C5 6.21156 6.69594 5.25134 8.02899 6.05116L15.0853 10.285C16.38 11.0618 16.38 12.9381 15.0853 13.7149L8.02899 17.9488C6.69595 18.7486 5 17.7884 5 16.2338V7.76615ZM14.0563 12L7 7.76615V16.2338L14.0563 12Z" fill="#0D0D0D"/>
<path d="M18 5.99996C18.5523 5.99996 19 6.44768 19 6.99996V17C19 17.5522 18.5523 18 18 18C17.4477 18 17 17.5522 17 17V6.99996C17 6.44768 17.4477 5.99996 18 5.99996Z" fill="#0D0D0D"/>
</svg>
