<svg width="28" height="28" viewBox="0 0 28 28" fill="none" xmlns="http://www.w3.org/2000/svg">
<path d="M13.2249 2.62794C13.6669 2.23502 14.333 2.23502 14.7751 2.62794L25.2751 11.9613C25.7567 12.3893 25.8 13.1268 25.372 13.6083C24.9439 14.0899 24.2065 14.1333 23.7249 13.7052L23.3333 13.3572V22.1666C23.3333 23.4553 22.2887 24.4999 21 24.4999H6.99999C5.71133 24.4999 4.66666 23.4552 4.66666 22.1666V13.3572L4.27508 13.7052C3.7935 14.1333 3.05609 14.0899 2.62801 13.6083C2.19994 13.1268 2.24332 12.3893 2.7249 11.9613L13.2249 2.62794ZM6.99999 11.2831V22.1666H10.5V16.3333C10.5 15.6889 11.0223 15.1666 11.6667 15.1666H16.3333C16.9777 15.1666 17.5 15.6889 17.5 16.3333V22.1666H21V11.2831L14 5.06087L6.99999 11.2831ZM15.1667 22.1666V17.4999H12.8333V22.1666H15.1667Z" fill="#0D0D0D"/>
</svg>
