<svg width="28" height="28" viewBox="0 0 28 28" fill="none" xmlns="http://www.w3.org/2000/svg">
<path fill-rule="evenodd" clip-rule="evenodd" d="M13.8725 6.65511L13.2175 5.88951C10.5814 3.25347 6.37761 3.4331 3.74157 6.06914C1.10553 8.70518 1.61284 13.8015 4.24888 16.4375C5.31874 17.5074 6.92092 18.9887 9.05542 20.8815L10.8511 22.4612L12.8681 24.212C13.4234 24.6913 14.2439 24.6986 14.8077 24.2293L16.4416 22.8594C19.3029 20.4413 21.4262 18.5366 22.8115 17.1454L23.171 16.7788L23.4939 16.4375C25.9489 13.7901 26.5798 8.64387 24.005 6.06914L23.8185 5.88951C21.1711 3.43453 17.179 3.31477 14.6042 5.88951L13.8725 6.65511ZM4.80223 7.1298C6.88666 5.04537 10.1114 4.94765 12.118 6.91183L13.8111 8.89048L15.6886 6.92588C17.6145 5.00055 20.6838 5.02838 22.7986 6.98939L22.9645 7.14958C24.7839 8.96937 24.4744 13.1741 22.394 15.4176L22.0815 15.7477L21.7348 16.1012C20.5864 17.2537 18.8845 18.7978 16.6405 20.7208L15.4734 21.7138L13.8481 23.0764L11.8344 21.3285L10.3932 20.0625C8.36239 18.2676 6.79575 16.832 5.69885 15.7613L5.30954 15.3769C3.138 13.2053 2.8664 9.06563 4.80223 7.1298Z" fill="black"/>
</svg>
