<svg width="29" height="28" viewBox="0 0 29 28" fill="none" xmlns="http://www.w3.org/2000/svg">
<path d="M3.99994 5.83333C3.99994 4.54467 5.04461 3.5 6.33327 3.5H10.9999C12.2886 3.5 13.3333 4.54467 13.3333 5.83333V10.5C13.3333 11.7887 12.2886 12.8333 10.9999 12.8333H6.33327C5.04461 12.8333 3.99994 11.7887 3.99994 10.5V5.83333ZM10.9999 5.83333H6.33327V10.5H10.9999V5.83333ZM15.6666 5.83333C15.6666 4.54467 16.7113 3.5 17.9999 3.5H22.6666C23.9553 3.5 24.9999 4.54467 24.9999 5.83333V10.5C24.9999 11.7887 23.9553 12.8333 22.6666 12.8333H17.9999C16.7113 12.8333 15.6666 11.7887 15.6666 10.5V5.83333ZM22.6666 5.83333H17.9999V10.5H22.6666V5.83333ZM3.99994 17.5C3.99994 16.2113 5.04461 15.1667 6.33327 15.1667H10.9999C12.2886 15.1667 13.3333 16.2113 13.3333 17.5V22.1667C13.3333 23.4553 12.2886 24.5 10.9999 24.5H6.33327C5.04461 24.5 3.99994 23.4553 3.99994 22.1667V17.5ZM10.9999 17.5H6.33327V22.1667H10.9999V17.5ZM15.6666 17.5C15.6666 16.2113 16.7113 15.1667 17.9999 15.1667H22.6666C23.9553 15.1667 24.9999 16.2113 24.9999 17.5V22.1667C24.9999 23.4553 23.9553 24.5 22.6666 24.5H17.9999C16.7113 24.5 15.6666 23.4553 15.6666 22.1667V17.5ZM22.6666 17.5H17.9999V22.1667H22.6666V17.5Z" fill="#0D0D0D"/>
</svg>
