<svg width="28" height="28" viewBox="0 0 28 28" fill="none" xmlns="http://www.w3.org/2000/svg">
<path d="M11.6667 4.66659C7.80068 4.66659 4.66668 7.80059 4.66668 11.6666C4.66668 15.5326 7.80068 18.6666 11.6667 18.6666C15.5327 18.6666 18.6667 15.5326 18.6667 11.6666C18.6667 7.80059 15.5327 4.66659 11.6667 4.66659ZM2.33334 11.6666C2.33334 6.51193 6.51202 2.33325 11.6667 2.33325C16.8213 2.33325 21 6.51193 21 11.6666C21 13.8234 20.2684 15.8094 19.0398 17.3898L25.325 23.675C25.7806 24.1306 25.7806 24.8693 25.325 25.3249C24.8694 25.7805 24.1307 25.7805 23.6751 25.3249L17.3899 19.0398C15.8095 20.2683 13.8235 20.9999 11.6667 20.9999C6.51202 20.9999 2.33334 16.8212 2.33334 11.6666Z" fill="#0D0D0D"/>
</svg>
