<svg width="24" height="24" viewBox="0 0 24 24" fill="none" xmlns="http://www.w3.org/2000/svg">
<path d="M19 7.76615C19 6.21156 17.3041 5.25134 15.971 6.05116L8.91466 10.285C7.61998 11.0618 7.61998 12.9381 8.91466 13.7149L15.971 17.9488C17.3041 18.7486 19 17.7884 19 16.2338V7.76615ZM9.94365 12L17 7.76615V16.2338L9.94365 12Z" fill="#0D0D0D"/>
<path d="M6 5.99996C6.55228 5.99996 7 6.44768 7 6.99996V17C7 17.5522 6.55228 18 6 18C5.44772 18 5 17.5522 5 17V6.99996C5 6.44768 5.44772 5.99996 6 5.99996Z" fill="#0D0D0D"/>
</svg>
