<svg width="28" height="28" viewBox="0 0 28 28" fill="none" xmlns="http://www.w3.org/2000/svg">
<path d="M13.2175 5.88951L13.8725 6.65511L14.6042 5.88951C17.179 3.31477 21.1711 3.43453 23.8185 5.88951L24.005 6.06914C26.5798 8.64387 25.9489 13.7901 23.4939 16.4375L23.171 16.7788L22.8115 17.1454C21.4262 18.5366 14.8077 24.2293 14.8077 24.2293C14.2439 24.6986 13.4234 24.6913 12.8681 24.212L10.8511 22.4612L9.05542 20.8815C6.92092 18.9887 5.31874 17.5074 4.24888 16.4375C1.61284 13.8015 1.10553 8.70518 3.74157 6.06914C6.37761 3.4331 10.5814 3.25347 13.2175 5.88951Z" fill="#262626"/>
</svg>
