<svg width="28" height="28" viewBox="0 0 28 28" fill="none" xmlns="http://www.w3.org/2000/svg">
<path d="M4.91668 11.6666C4.91668 7.93866 7.93876 4.91659 11.6667 4.91659C15.3946 4.91659 18.4167 7.93866 18.4167 11.6666C18.4167 15.3945 15.3946 18.4166 11.6667 18.4166C7.93876 18.4166 4.91668 15.3945 4.91668 11.6666ZM11.6667 2.08325C6.37395 2.08325 2.08334 6.37386 2.08334 11.6666C2.08334 16.9593 6.37395 21.2499 11.6667 21.2499C13.8017 21.2499 15.7742 20.5515 17.3674 19.3707L23.4983 25.5017C24.0515 26.0549 24.9485 26.0549 25.5017 25.5017C26.055 24.9484 26.055 24.0514 25.5017 23.4982L19.3708 17.3673C20.5516 15.7741 21.25 13.8016 21.25 11.6666C21.25 6.37386 16.9594 2.08325 11.6667 2.08325Z" fill="#0D0D0D" stroke="black" stroke-width="0.5" stroke-miterlimit="10" stroke-linecap="round" stroke-linejoin="round"/>
</svg>
