<svg width="28" height="29" viewBox="0 0 28 29" fill="none" xmlns="http://www.w3.org/2000/svg">
<path fill-rule="evenodd" clip-rule="evenodd" d="M18.6691 12.2159C18.6691 15.9905 15.6092 19.0505 11.8346 19.0505C8.05994 19.0505 5 15.9905 5 12.2159C5 8.44128 8.05994 5.38135 11.8346 5.38135C15.6092 5.38135 18.6691 8.44128 18.6691 12.2159ZM17.6471 20.1498C16.0188 21.3447 14.0091 22.0505 11.8346 22.0505C6.40308 22.0505 2 17.6474 2 12.2159C2 6.78443 6.40308 2.38135 11.8346 2.38135C17.266 2.38135 21.6691 6.78443 21.6691 12.2159C21.6691 14.3904 20.9634 16.4001 19.7684 18.0284L25.097 23.357C25.6828 23.9428 25.6828 24.8926 25.097 25.4783C24.5112 26.0641 23.5615 26.0641 22.9757 25.4783L17.6471 20.1498Z" fill="black"/>
</svg>
