<svg width="28" height="29" viewBox="0 0 28 29" fill="none" xmlns="http://www.w3.org/2000/svg">
<path d="M9.80952 25.3446H5C4.44772 25.3446 4 24.8969 4 24.3446V15.5378C4 15.2831 4.09721 15.038 4.2718 14.8525L13.3988 5.15506C13.7936 4.73555 14.4603 4.73555 14.8552 5.15506L23.8076 14.667C23.9822 14.8525 24.0794 15.0976 24.0794 15.3523V24.3446C24.0794 24.8969 23.6317 25.3446 23.0794 25.3446H18.0952C17.543 25.3446 17.0952 24.8969 17.0952 24.3446V19.4081C17.0952 19.4081 17.0952 16.6254 14.127 16.6254C10.6349 16.6254 10.8095 19.4081 10.8095 19.4081V24.3446C10.8095 24.8969 10.3618 25.3446 9.80952 25.3446Z" fill="black"/>
</svg>
