<svg width="28" height="28" viewBox="0 0 28 28" fill="none" xmlns="http://www.w3.org/2000/svg">
<path d="M7 9.33337C7 5.46738 10.134 2.33337 14 2.33337C17.866 2.33337 21 5.46738 21 9.33337C21 13.1994 17.866 16.3334 14 16.3334C10.134 16.3334 7 13.1994 7 9.33337ZM9.33333 21C7.40034 21 5.83333 22.567 5.83333 24.5C5.83333 25.1444 5.311 25.6667 4.66667 25.6667C4.02233 25.6667 3.5 25.1444 3.5 24.5C3.5 21.2784 6.11167 18.6667 9.33333 18.6667H18.6667C21.8883 18.6667 24.5 21.2784 24.5 24.5C24.5 25.1444 23.9777 25.6667 23.3333 25.6667C22.689 25.6667 22.1667 25.1444 22.1667 24.5C22.1667 22.567 20.5997 21 18.6667 21H9.33333Z" fill="#0D0D0D"/>
</svg>
